<svg xmlns="http://www.w3.org/2000/svg" viewBox="0 0 64 64">
  <defs>
    <linearGradient id="eGrad" x1="0" y1="0" x2="0" y2="1">
      <stop offset="0%" stop-color="#D9FBE8"/>
      <stop offset="55%" stop-color="#45E6A1"/>
      <stop offset="100%" stop-color="#45E6A1"/>
    </linearGradient>
    <radialGradient id="starGlow" cx="50%" cy="50%" r="50%">
      <stop offset="0%" stop-color="#FFFFFF" stop-opacity="0.9"/>
      <stop offset="60%" stop-color="#D9FBE8" stop-opacity="0.3"/>
      <stop offset="100%" stop-color="#45E6A1" stop-opacity="0"/>
    </radialGradient>
  </defs>

  <rect width="64" height="64" rx="14" fill="#080a12"/>
  <rect x="1" y="1" width="62" height="62" rx="13"
        fill="none" stroke="#45E6A1" stroke-opacity="0.22" stroke-width="1"/>
  <circle cx="32" cy="32" r="22" fill="none"
          stroke="#45E6A1" stroke-opacity="0.18" stroke-width="1"/>

  <!-- Alone della stella -->
  <circle cx="44" cy="32.25" r="7" fill="url(#starGlow)" opacity="0.5"/>

  <!-- E stilizzata con serif appuntiti -->
  <path fill="url(#eGrad)" d="
    M 13.5 11
    L 48 11
    L 54 15.25
    L 48 20.5
    L 23 20.5
    L 23 27.5
    L 38 27.5
    L 38 37
    L 23 37
    L 23 43.5
    L 48 43.5
    L 54 48.25
    L 48 53
    L 13.5 53
    Z
  "/>

  <!-- Stella a quattro punte, più grande -->
  <path fill="#FFFFFF" d="M 44 26.25 L 45.5 30.75 L 50 32.25 L 45.5 33.75 L 44 38.25 L 42.5 33.75 L 38 32.25 L 42.5 30.75 Z"/>
</svg>
